<svg width="216" height="60" xmlns="http://www.w3.org/2000/svg" xmlns:xlink="http://www.w3.org/1999/xlink" xml:space="preserve" overflow="hidden"><g transform="translate(-24 -36)"><path d="M3.87082 55.0448 3.48892 55.0448 3.48892 50.33C3.48892 49.9576 3.49835 49.5002 3.52192 48.9628L3.51249 48.9628C3.47478 49.2786 3.44177 49.505 3.41348 49.6417L2.28666 55.0448 2.09807 55.0448 0.97124 49.6794C0.938237 49.5238 0.905233 49.2834 0.87223 48.958L0.862801 48.958C0.876945 49.2409 0.88166 49.6983 0.88166 50.3347L0.88166 55.0401 0.504479 55.0401 0.504479 48.0104 1.01367 48.0104 2.02735 52.9137C2.1075 53.2909 2.15464 53.5738 2.17822 53.7577L2.19236 53.7577C2.25837 53.3711 2.31023 53.0835 2.35266 52.8949L3.3852 48.0104 3.87082 48.0104 3.87082 55.0448Z" fill="#6D6E71" transform="matrix(2.05022 0 0 1 24.3415 36)"/><path d="M6.37435 55.0448 5.99717 55.0448 5.99717 54.2621 5.98774 54.2621C5.82273 54.8656 5.58227 55.1627 5.26167 55.1627 5.02593 55.1627 4.84206 55.0306 4.71004 54.7666 4.57803 54.5026 4.51202 54.149 4.51202 53.7152 4.51202 52.777 4.77133 52.2301 5.28996 52.0792L5.99717 51.867C5.99717 51.0137 5.83687 50.5893 5.51155 50.5893 5.22867 50.5893 4.96935 50.7968 4.74305 51.207L4.74305 50.3819C4.97407 50.066 5.24281 49.9104 5.54455 49.9104 6.1009 49.9104 6.37435 50.5375 6.37435 51.7822L6.37435 55.0448ZM5.99717 52.5035 5.42669 52.6686C5.25224 52.7204 5.12023 52.8147 5.03065 52.9467 4.94107 53.0787 4.89863 53.3145 4.89863 53.6492 4.89863 53.8944 4.94107 54.0971 5.02122 54.248 5.10137 54.4036 5.21452 54.479 5.35125 54.479 5.53984 54.479 5.69071 54.3376 5.8133 54.0594 5.93588 53.7812 5.99717 53.4276 5.99717 52.9986L5.99717 52.5035Z" fill="#6D6E71" transform="matrix(2.05022 0 0 1 24.3415 36)"/><path d="M9.09948 55.0448 8.7223 55.0448 8.7223 54.1914 8.71287 54.1914C8.53843 54.8373 8.26968 55.1627 7.90193 55.1627 7.6049 55.1627 7.36917 54.9363 7.19 54.4884 7.01084 54.0406 6.92598 53.4276 6.92598 52.6544 6.92598 51.8246 7.02499 51.1598 7.21829 50.6601 7.41631 50.1603 7.67562 49.9104 8.00566 49.9104 8.33098 49.9104 8.56671 50.1839 8.71287 50.7261L8.7223 50.7261 8.7223 47.619 9.09948 47.619 9.09948 55.0448ZM8.7223 52.7723 8.7223 52.0321C8.7223 51.6266 8.66101 51.2824 8.53371 51.0042 8.40641 50.7214 8.24611 50.5846 8.05752 50.5846 7.8265 50.5846 7.64734 50.7638 7.51532 51.1221 7.38331 51.4804 7.3173 51.9802 7.3173 52.612 7.3173 53.1919 7.37859 53.6492 7.50589 53.984 7.63319 54.3187 7.80292 54.4884 8.01509 54.4884 8.22725 54.4884 8.39698 54.3281 8.529 54.0028 8.65629 53.6775 8.7223 53.2673 8.7223 52.7723Z" fill="#6D6E71" transform="matrix(2.05022 0 0 1 24.3415 36)"/><path d="M10.0566 48.7459C9.99057 48.7459 9.92928 48.6987 9.88213 48.5997 9.83498 48.5007 9.81141 48.3781 9.81141 48.2273 9.81141 48.0764 9.83498 47.9491 9.88213 47.8501 9.92928 47.7511 9.98586 47.6992 10.0566 47.6992 10.1273 47.6992 10.1839 47.7511 10.231 47.8501 10.2782 47.9491 10.3017 48.0717 10.3017 48.2273 10.3017 48.3734 10.2782 48.4913 10.231 48.595 10.1839 48.6987 10.1273 48.7459 10.0566 48.7459ZM10.2405 55.0448 9.86327 55.0448 9.86327 50.0236 10.2405 50.0236 10.2405 55.0448Z" fill="#6D6E71" transform="matrix(2.05022 0 0 1 24.3415 36)"/><path d="M12.9609 55.0448 12.5837 55.0448 12.5837 52.1829C12.5837 51.1174 12.3998 50.5846 12.0368 50.5846 11.8482 50.5846 11.6926 50.7355 11.57 51.0372 11.4474 51.339 11.3861 51.7209 11.3861 52.1829L11.3861 55.0448 11.009 55.0448 11.009 50.0236 11.3861 50.0236 11.3861 50.8581 11.3956 50.8581C11.5747 50.2216 11.8293 49.9057 12.1688 49.9057 12.4281 49.9057 12.6261 50.0849 12.7581 50.4385 12.8949 50.7921 12.9609 51.306 12.9609 51.9755L12.9609 55.0448Z" fill="#6D6E71" transform="matrix(2.05022 0 0 1 24.3415 36)"/><path d="M15.3607 55.0448 14.9835 55.0448 14.9835 54.2621 14.9741 54.2621C14.8091 54.8656 14.5686 55.1627 14.248 55.1627 14.0123 55.1627 13.8284 55.0306 13.6964 54.7666 13.5644 54.5026 13.4983 54.149 13.4983 53.7152 13.4983 52.777 13.7577 52.2301 14.2763 52.0792L14.9835 51.867C14.9835 51.0137 14.8232 50.5893 14.4979 50.5893 14.215 50.5893 13.9557 50.7968 13.7294 51.207L13.7294 50.3819C13.9604 50.066 14.2291 49.9104 14.5309 49.9104 15.0872 49.9104 15.3607 50.5375 15.3607 51.7822L15.3607 55.0448ZM14.9835 52.5035 14.413 52.6686C14.2386 52.7204 14.1066 52.8147 14.017 52.9467 13.9274 53.0787 13.885 53.3145 13.885 53.6492 13.885 53.8944 13.9274 54.0971 14.0075 54.248 14.0877 54.4036 14.2008 54.479 14.3376 54.479 14.5262 54.479 14.677 54.3376 14.7996 54.0594 14.9222 53.7812 14.9835 53.4276 14.9835 52.9986L14.9835 52.5035Z" fill="#6D6E71" transform="matrix(2.05022 0 0 1 24.3415 36)"/><path d="M18.0292 55.0448 17.6521 55.0448 17.6521 52.1499C17.6521 51.1033 17.4682 50.5799 17.1051 50.5799 16.9213 50.5799 16.7657 50.7308 16.6384 51.0325 16.5111 51.3343 16.4498 51.7209 16.4498 52.1971L16.4498 55.0401 16.0726 55.0401 16.0726 47.6096 16.4498 47.6096 16.4498 50.8534 16.4592 50.8534C16.6384 50.2169 16.8977 49.901 17.2324 49.901 17.7652 49.901 18.0292 50.5846 18.0292 51.9472L18.0292 55.0448Z" fill="#6D6E71" transform="matrix(2.05022 0 0 1 24.3415 36)"/><path d="M22.4517 55.0448 21.9896 55.0448 21.438 53.074C21.3861 52.8901 21.339 52.7346 21.2918 52.6073 21.2447 52.48 21.1975 52.3715 21.1457 52.2914 21.0938 52.2112 21.042 52.1499 20.9854 52.1122 20.9288 52.0745 20.8628 52.0556 20.7921 52.0556L20.4762 52.0556 20.4762 55.0448 20.0849 55.0448 20.0849 48.0151 21.0702 48.0151C21.2164 48.0151 21.3484 48.0528 21.471 48.1282 21.5936 48.2037 21.6973 48.3215 21.7869 48.4771 21.8765 48.6327 21.9472 48.8307 21.9991 49.0618 22.0509 49.2975 22.0745 49.571 22.0745 49.8821 22.0745 50.1273 22.0556 50.3536 22.0226 50.5563 21.9896 50.7591 21.9378 50.943 21.8765 51.1033 21.8152 51.2636 21.735 51.4003 21.6455 51.5134 21.5559 51.6266 21.4569 51.7162 21.3437 51.7775L21.3437 51.7963C21.4003 51.8482 21.4474 51.9095 21.4899 51.9755 21.5323 52.0415 21.57 52.1216 21.6077 52.2112 21.6455 52.3055 21.6832 52.4092 21.7162 52.5224 21.7539 52.6403 21.7916 52.7723 21.8388 52.9279L22.4517 55.0448ZM20.4715 48.76 20.4715 51.3107 20.9948 51.3107C21.0891 51.3107 21.1787 51.2777 21.2636 51.2164 21.3437 51.1551 21.4144 51.0655 21.4757 50.9477 21.537 50.8298 21.5842 50.6884 21.6172 50.5233 21.6502 50.3536 21.669 50.165 21.669 49.9576 21.669 49.5804 21.6124 49.2881 21.4993 49.0759 21.3861 48.8637 21.2211 48.76 21.0042 48.76L20.4715 48.76Z" fill="#6D6E71" transform="matrix(2.05022 0 0 1 24.3415 36)"/><path d="M24.7478 52.7346 23.0835 52.7346C23.0882 53.2956 23.1589 53.7247 23.2956 54.0311 23.4323 54.3329 23.6162 54.4884 23.852 54.4884 24.116 54.4884 24.3611 54.3046 24.5827 53.9274L24.5827 54.6818C24.3753 55.0024 24.1018 55.1627 23.7624 55.1627 23.4276 55.1627 23.1683 54.9363 22.975 54.479 22.7864 54.0217 22.6921 53.3805 22.6921 52.5554 22.6921 51.7727 22.7959 51.1363 23.0033 50.6459 23.2107 50.1556 23.4701 49.9104 23.7765 49.9104 24.083 49.9104 24.3234 50.1226 24.4932 50.5469 24.6629 50.9712 24.7478 51.5606 24.7478 52.3149L24.7478 52.7346ZM24.3611 52.0509C24.3611 51.5889 24.3046 51.2258 24.2008 50.9665 24.0971 50.7072 23.9557 50.5799 23.7671 50.5799 23.5879 50.5799 23.4371 50.7166 23.3145 50.9854 23.1919 51.2541 23.1117 51.6124 23.0835 52.0509L24.3611 52.0509Z" fill="#6D6E71" transform="matrix(2.05022 0 0 1 24.3415 36)"/><path d="M27.3314 54.6393C27.3314 56.4828 26.9165 57.4022 26.0868 57.4022 25.7944 57.4022 25.5398 57.2843 25.323 57.0486L25.323 56.2423C25.587 56.5582 25.8416 56.7138 26.082 56.7138 26.662 56.7138 26.9543 56.0585 26.9543 54.743L26.9543 54.1914 26.9448 54.1914C26.7657 54.8326 26.4969 55.1532 26.1339 55.1532 25.8416 55.1532 25.6058 54.9316 25.4267 54.4837 25.2475 54.0358 25.1579 53.4371 25.1579 52.6874 25.1579 51.834 25.2522 51.1551 25.4455 50.6506 25.6388 50.1462 25.9029 49.8963 26.2376 49.8963 26.5535 49.8963 26.7892 50.1697 26.9448 50.7119L26.9543 50.7119 26.9543 50.0141 27.3314 50.0141 27.3314 54.6393ZM26.9543 52.7723 26.9543 52.0321C26.9543 51.6313 26.893 51.2918 26.7657 51.009 26.6384 50.7261 26.4828 50.5799 26.2942 50.5799 26.0632 50.5799 25.8793 50.7591 25.7473 51.1221 25.6153 51.4851 25.5493 51.9896 25.5493 52.6403 25.5493 53.2013 25.6106 53.6445 25.7379 53.9793 25.8652 54.314 26.0302 54.4837 26.2423 54.4837 26.4545 54.4837 26.6242 54.3234 26.761 54.0028 26.8835 53.6822 26.9543 53.272 26.9543 52.7723Z" fill="#6D6E71" transform="matrix(2.05022 0 0 1 24.3415 36)"/><path d="M28.2885 48.7459C28.2225 48.7459 28.1612 48.6987 28.1141 48.5997 28.0669 48.5007 28.0434 48.3781 28.0434 48.2273 28.0434 48.0764 28.0669 47.9491 28.1141 47.8501 28.1612 47.7511 28.2178 47.6992 28.2885 47.6992 28.3593 47.6992 28.4158 47.7511 28.463 47.8501 28.5101 47.9491 28.5337 48.0717 28.5337 48.2273 28.5337 48.3734 28.5101 48.4913 28.463 48.595 28.4158 48.6987 28.3545 48.7459 28.2885 48.7459ZM28.4724 55.0448 28.0952 55.0448 28.0952 50.0236 28.4724 50.0236 28.4724 55.0448Z" fill="#6D6E71" transform="matrix(2.05022 0 0 1 24.3415 36)"/><path d="M30.2216 55.1627C29.8727 55.1627 29.5945 54.9269 29.3871 54.4602 29.1796 53.9934 29.0759 53.3711 29.0759 52.5931 29.0759 51.7492 29.1843 51.0891 29.4012 50.6176 29.6181 50.1414 29.9104 49.9057 30.2782 49.9057 30.6318 49.9057 30.9052 50.1367 31.1033 50.5988 31.3013 51.0608 31.4003 51.6973 31.4003 52.513 31.4003 53.3145 31.2918 53.9557 31.0797 54.4366 30.8628 54.9222 30.5799 55.1627 30.2216 55.1627ZM30.2499 50.5799C30.0094 50.5799 29.8161 50.7544 29.6747 51.108 29.5332 51.4616 29.4625 51.9425 29.4625 52.5601 29.4625 53.1542 29.5332 53.6256 29.6747 53.9698 29.8161 54.314 30.0094 54.4837 30.2499 54.4837 30.4951 54.4837 30.6836 54.314 30.8109 53.9793 30.9429 53.6445 31.009 53.1636 31.009 52.5413 31.009 51.9142 30.9429 51.4286 30.8109 51.0891 30.6789 50.7496 30.4903 50.5799 30.2499 50.5799Z" fill="#6D6E71" transform="matrix(2.05022 0 0 1 24.3415 36)"/><path d="M33.9557 55.0448 33.5785 55.0448 33.5785 52.1829C33.5785 51.1174 33.3946 50.5846 33.0316 50.5846 32.843 50.5846 32.6874 50.7355 32.5648 51.0372 32.4422 51.339 32.381 51.7209 32.381 52.1829L32.381 55.0448 32.0038 55.0448 32.0038 50.0236 32.381 50.0236 32.381 50.8581 32.3904 50.8581C32.5695 50.2216 32.8241 49.9057 33.1636 49.9057 33.4229 49.9057 33.6209 50.0849 33.7529 50.4385 33.8897 50.7921 33.9557 51.306 33.9557 51.9755L33.9557 55.0448Z" fill="#6D6E71" transform="matrix(2.05022 0 0 1 24.3415 36)"/><path d="M36.3555 55.0448 35.9783 55.0448 35.9783 54.2621 35.9689 54.2621C35.8039 54.8656 35.5634 55.1627 35.2428 55.1627 35.0071 55.1627 34.8232 55.0306 34.6912 54.7666 34.5592 54.5026 34.4932 54.149 34.4932 53.7152 34.4932 52.777 34.7525 52.2301 35.2711 52.0792L35.9783 51.867C35.9783 51.0137 35.818 50.5893 35.4927 50.5893 35.2098 50.5893 34.9505 50.7968 34.7242 51.207L34.7242 50.3819C34.9552 50.066 35.2239 49.9104 35.5257 49.9104 36.0773 49.9104 36.3555 50.5375 36.3555 51.7822L36.3555 55.0448ZM35.9736 52.5035 35.4031 52.6686C35.2287 52.7204 35.0967 52.8147 35.0071 52.9467 34.9175 53.0787 34.8751 53.3145 34.8751 53.6492 34.8751 53.8944 34.9175 54.0971 34.9976 54.248 35.0778 54.4036 35.1909 54.479 35.3277 54.479 35.5163 54.479 35.6671 54.3376 35.7897 54.0594 35.9123 53.7812 35.9736 53.4276 35.9736 52.9986L35.9736 52.5035Z" fill="#6D6E71" transform="matrix(2.05022 0 0 1 24.3415 36)"/><path d="M37.4399 55.0448 37.0627 55.0448 37.0627 47.6143 37.4399 47.6143 37.4399 55.0448Z" fill="#6D6E71" transform="matrix(2.05022 0 0 1 24.3415 36)"/><path d="M42.9137 55.0448 42.5271 55.0448 42.5271 50.33C42.5271 49.9576 42.5365 49.5002 42.5601 48.9628L42.5507 48.9628C42.513 49.2786 42.48 49.505 42.4517 49.6417L41.3248 55.0448 41.1363 55.0448 40.0094 49.6794C39.9764 49.5238 39.9434 49.2834 39.9104 48.958L39.901 48.958C39.9151 49.2409 39.9198 49.6983 39.9198 50.3347L39.9198 55.0401 39.5474 55.0401 39.5474 48.0104 40.0566 48.0104 41.0703 52.9137C41.1504 53.2909 41.1975 53.5738 41.2211 53.7577L41.2353 53.7577C41.3013 53.3711 41.3531 53.0835 41.3956 52.8949L42.4328 48.0104 42.9184 48.0104 42.9184 55.0448Z" fill="#6D6E71" transform="matrix(2.05022 0 0 1 24.3415 36)"/><path d="M45.6389 55.0448 45.2617 55.0448 45.2617 54.248 45.2522 54.248C45.0967 54.8562 44.8515 55.1627 44.5262 55.1627 43.9651 55.1627 43.6822 54.4507 43.6822 53.0222L43.6822 50.0236 44.0594 50.0236 44.0594 52.8949C44.0594 53.9557 44.248 54.4837 44.6299 54.4837 44.8138 54.4837 44.9646 54.3376 45.0825 54.05 45.2004 53.7624 45.2617 53.3805 45.2617 52.9137L45.2617 50.0236 45.6389 50.0236 45.6389 55.0448Z" fill="#6D6E71" transform="matrix(2.05022 0 0 1 24.3415 36)"/><path d="M48.3545 55.0448 47.9774 55.0448 47.9774 52.1829C47.9774 51.1174 47.7935 50.5846 47.4305 50.5846 47.2419 50.5846 47.0863 50.7355 46.9637 51.0372 46.8411 51.339 46.7798 51.7209 46.7798 52.1829L46.7798 55.0448 46.4026 55.0448 46.4026 50.0236 46.7798 50.0236 46.7798 50.8581 46.7892 50.8581C46.9684 50.2216 47.223 49.9057 47.5625 49.9057 47.8218 49.9057 48.0198 50.0849 48.1565 50.4385 48.2933 50.7921 48.3593 51.306 48.3593 51.9755L48.3593 55.0448Z" fill="#6D6E71" transform="matrix(2.05022 0 0 1 24.3415 36)"/><path d="M49.2598 48.7459C49.1938 48.7459 49.1325 48.6987 49.0853 48.5997 49.0382 48.5007 49.0146 48.3781 49.0146 48.2273 49.0146 48.0764 49.0382 47.9491 49.0853 47.8501 49.1325 47.7511 49.1891 47.6992 49.2598 47.6992 49.3305 47.6992 49.3871 47.7511 49.4342 47.8501 49.4814 47.9491 49.505 48.0717 49.505 48.2273 49.505 48.3734 49.4814 48.4913 49.4342 48.595 49.3871 48.6987 49.3305 48.7459 49.2598 48.7459ZM49.4437 55.0448 49.0665 55.0448 49.0665 50.0236 49.4437 50.0236 49.4437 55.0448Z" fill="#6D6E71" transform="matrix(2.05022 0 0 1 24.3415 36)"/><path d="M51.8152 54.8138C51.636 55.0448 51.4191 55.1627 51.1693 55.1627 50.8345 55.1627 50.5611 54.9316 50.3536 54.4649 50.1462 53.9981 50.0424 53.3946 50.0424 52.6544 50.0424 51.8246 50.1556 51.1645 50.3772 50.6601 50.5988 50.1603 50.8958 49.9057 51.2683 49.9057 51.4757 49.9057 51.6596 49.9859 51.8152 50.1509L51.8152 50.976C51.6407 50.7166 51.4521 50.5846 51.2541 50.5846 51.0137 50.5846 50.8157 50.7685 50.6601 51.1363 50.5045 51.504 50.429 51.9849 50.429 52.5837 50.429 53.173 50.4998 53.6351 50.6459 53.9745 50.7921 54.314 50.9854 54.4837 51.2306 54.4837 51.438 54.4837 51.6313 54.3376 51.8105 54.0453L51.8105 54.8138Z" fill="#6D6E71" transform="matrix(2.05022 0 0 1 24.3415 36)"/><path d="M52.579 48.7459C52.513 48.7459 52.4517 48.6987 52.4045 48.5997 52.3574 48.5007 52.3338 48.3781 52.3338 48.2273 52.3338 48.0764 52.3574 47.9491 52.4045 47.8501 52.4517 47.7511 52.5083 47.6992 52.579 47.6992 52.6497 47.6992 52.7063 47.7511 52.7534 47.8501 52.8006 47.9491 52.8241 48.0717 52.8241 48.2273 52.8241 48.3734 52.8006 48.4913 52.7534 48.595 52.7063 48.6987 52.6497 48.7459 52.579 48.7459ZM52.7628 55.0448 52.3857 55.0448 52.3857 50.0236 52.7628 50.0236 52.7628 55.0448Z" fill="#6D6E71" transform="matrix(2.05022 0 0 1 24.3415 36)"/><path d="M53.9132 54.3187 53.9038 54.3187 53.9038 57.355 53.5266 57.355 53.5266 50.0236 53.9038 50.0236 53.9038 50.9052 53.9132 50.9052C54.0971 50.2405 54.3706 49.9057 54.7289 49.9057 55.0306 49.9057 55.2711 50.132 55.4408 50.5799 55.6106 51.0278 55.6954 51.6313 55.6954 52.3857 55.6954 53.2249 55.6011 53.8991 55.4078 54.4036 55.2145 54.9081 54.9552 55.1627 54.6205 55.1627 54.3187 55.1627 54.083 54.8798 53.9132 54.3187ZM53.9038 52.2914 53.9038 52.9939C53.9038 53.4088 53.9651 53.7624 54.0924 54.05 54.2197 54.3376 54.38 54.4837 54.5733 54.4837 54.7996 54.4837 54.9788 54.2999 55.1108 53.9227 55.2381 53.5502 55.3041 53.0316 55.3041 52.3668 55.3041 51.8058 55.2428 51.372 55.1202 51.0514 54.9976 50.7355 54.8326 50.5752 54.6299 50.5752 54.4083 50.5752 54.2339 50.7402 54.1018 51.0608 53.9745 51.3956 53.9038 51.801 53.9038 52.2914Z" fill="#6D6E71" transform="matrix(2.05022 0 0 1 24.3415 36)"/><path d="M57.9868 55.0448 57.6096 55.0448 57.6096 54.2621 57.6002 54.2621C57.4352 54.8656 57.1947 55.1627 56.8741 55.1627 56.6384 55.1627 56.4545 55.0306 56.3225 54.7666 56.1905 54.5026 56.1245 54.149 56.1245 53.7152 56.1245 52.777 56.3838 52.2301 56.9024 52.0792L57.6096 51.867C57.6096 51.0137 57.4493 50.5893 57.124 50.5893 56.8411 50.5893 56.5818 50.7968 56.3555 51.207L56.3555 50.3819C56.5865 50.066 56.8553 49.9104 57.157 49.9104 57.7133 49.9104 57.9868 50.5375 57.9868 51.7822L57.9868 55.0448ZM57.6096 52.5035 57.0391 52.6686C56.8647 52.7204 56.7327 52.8147 56.6431 52.9467 56.5535 53.0787 56.5111 53.3145 56.5111 53.6492 56.5111 53.8944 56.5535 54.0971 56.6337 54.248 56.7138 54.4036 56.827 54.479 56.9637 54.479 57.1523 54.479 57.3032 54.3376 57.4257 54.0594 57.5483 53.7812 57.6096 53.4276 57.6096 52.9986L57.6096 52.5035Z" fill="#6D6E71" transform="matrix(2.05022 0 0 1 24.3415 36)"/><path d="M59.0759 55.0448 58.6987 55.0448 58.6987 47.6143 59.0759 47.6143 59.0759 55.0448Z" fill="#6D6E71" transform="matrix(2.05022 0 0 1 24.3415 36)"/><path d="M60.033 48.7459C59.967 48.7459 59.9057 48.6987 59.8586 48.5997 59.8114 48.5007 59.7878 48.3781 59.7878 48.2273 59.7878 48.0764 59.8114 47.9491 59.8586 47.8501 59.9057 47.7511 59.9623 47.6992 60.033 47.6992 60.1037 47.6992 60.1603 47.7511 60.2074 47.8501 60.2546 47.9491 60.2782 48.0717 60.2782 48.2273 60.2782 48.3734 60.2546 48.4913 60.2074 48.595 60.1603 48.6987 60.1037 48.7459 60.033 48.7459ZM60.2169 55.0448 59.8397 55.0448 59.8397 50.0236 60.2169 50.0236 60.2169 55.0448Z" fill="#6D6E71" transform="matrix(2.05022 0 0 1 24.3415 36)"/><path d="M62.0745 54.9929C61.9849 55.0967 61.867 55.1485 61.7209 55.1485 61.3107 55.1485 61.1033 54.6582 61.1033 53.6775L61.1033 50.7072 60.6978 50.7072 60.6978 50.0236 61.1033 50.0236 61.1033 48.7977 61.4804 48.5384 61.4804 50.0236 62.0745 50.0236 62.0745 50.7072 61.4804 50.7072 61.4804 53.5361C61.4804 53.8708 61.5087 54.1113 61.5606 54.2574 61.6124 54.4036 61.702 54.4743 61.8293 54.4743 61.9236 54.4743 62.0085 54.4177 62.0745 54.3093L62.0745 54.9929Z" fill="#6D6E71" transform="matrix(2.05022 0 0 1 24.3415 36)"/><path d="M64.4555 50.0236 63.3711 55.8463C63.1777 56.8883 62.9043 57.4069 62.5554 57.4069 62.4564 57.4069 62.3762 57.388 62.3102 57.3409L62.3102 56.6195C62.3904 56.6808 62.4658 56.7091 62.5318 56.7091 62.7204 56.7091 62.8666 56.4686 62.9609 55.983L63.1495 55.0306 62.2301 50.0189 62.6497 50.0189 63.2862 53.885C63.2956 53.9321 63.3098 54.0594 63.3333 54.2669L63.3475 54.2669C63.3569 54.1867 63.3711 54.0641 63.3946 53.8944L64.0641 50.0236 64.4555 50.0236Z" fill="#6D6E71" transform="matrix(2.05022 0 0 1 24.3415 36)"/><path d="M83.9698 47.7416C83.1353 43.4748 82.1829 39.3164 81.0372 35.3465 79.8303 31.1598 78.4677 27.1947 76.9873 23.4041 76.8081 22.9514 76.7138 22.612 76.8836 22.0132 78.0057 18.0245 79.3824 14.4602 80.9995 11.24 83.5078 15.7284 85.785 20.6035 87.6473 26.2565 87.8029 26.7327 87.8878 27.091 87.7228 27.6709 85.983 33.7247 84.8609 40.2687 84.1631 47.1381 84.1396 47.3833 84.149 47.6426 83.9698 47.7416Z" fill="#40958C" transform="matrix(2.05022 0 0 1 24.3415 36)"/><path d="M94.5356 48.0104C94.215 45.4597 93.9698 43.2108 93.6492 40.9995 92.9939 36.4074 92.0839 32.0273 90.91 27.8925 90.7166 27.2183 90.7355 26.7798 90.943 26.1622 92.7581 20.7402 94.9363 16.0113 97.3267 11.669 97.5106 11.3343 97.6096 11.2824 97.7935 11.669 99.2975 14.7855 100.608 18.199 101.683 22.0038 101.872 22.678 101.726 23.0316 101.546 23.4889 99.1655 29.5945 97.1004 36.1009 95.5257 43.2485 95.2051 44.7336 94.9033 46.2376 94.5356 48.0104Z" fill="#40958C" transform="matrix(2.05022 0 0 1 24.3415 36)"/><path d="M95.8274 8.18482C95.686 8.36869 95.5728 8.47242 95.4833 8.63272 93.272 12.6403 91.2683 17.0438 89.5332 21.9519 89.3305 22.5224 89.2456 22.5365 89.0382 21.9566 87.3032 17.0486 85.3041 12.6355 83.0882 8.64215 82.81 8.13767 82.8524 7.90665 83.1306 7.47289 84.9316 4.64404 86.8505 2.22065 88.8968 0.207449 89.1702-0.0612918 89.4012-0.0660066 89.6794 0.207449 91.7256 2.21594 93.6492 4.62518 95.4408 7.48703 95.5398 7.64734 95.6341 7.83593 95.8274 8.18482Z" fill="#6DBE4A" transform="matrix(2.05022 0 0 1 24.3415 36)"/><path d="M102.98 27.52C103.701 31.1033 104.182 34.611 104.531 38.199 104.715 40.0754 104.842 41.9755 104.998 43.8661 105.078 44.8468 104.969 45.62 104.63 46.4121 102.174 52.1264 99.1278 55.8699 95.5257 58.1942 96.8458 46.695 99.4625 36.7657 102.98 27.52Z" fill="#067567" transform="matrix(2.05022 0 0 1 24.3415 36)"/><path d="M83.0457 58.1895C79.3541 55.8086 76.2471 51.9519 73.7812 46.0019 73.5361 45.4125 73.5266 44.8326 73.5691 44.1961 73.918 38.7317 74.4649 33.3616 75.4597 28.2225 75.4927 28.0434 75.5398 27.8689 75.6106 27.553 79.1042 36.7515 81.7303 46.695 83.0457 58.1895Z" fill="#067567" transform="matrix(2.05022 0 0 1 24.3415 36)"/><path d="M89.3211 31.9519C90.6789 37.2372 91.5889 42.7534 92.1452 48.5243 92.4517 51.7303 92.5931 54.9788 92.744 58.2273 92.7864 59.1749 92.6733 59.5427 92.1594 59.6653 90.2169 60.1132 88.2885 60.1179 86.3508 59.637 86.0113 59.5521 85.8039 59.4484 85.8274 58.5761 86.1009 49.3258 87.0863 40.462 89.1796 32.2018 89.1938 32.1405 89.2315 32.1028 89.3211 31.9519Z" fill="#067567" transform="matrix(2.05022 0 0 1 24.3415 36)"/><path d="M46.8128 21.2588C45.1862 21.2588 43.5596 21.2211 41.9331 21.2824 41.471 21.3013 41.3484 21.0184 41.3861 20.1179 41.4333 19.0665 41.339 17.9962 41.5087 16.9543 41.7067 15.7473 42.0981 15.0024 42.711 14.9175 43.3616 14.8279 44.0217 14.8986 44.6723 14.8703 44.9128 14.8609 44.9788 15.0589 44.9741 15.521 44.9599 16.2989 44.9505 17.0769 44.9788 17.8548 45.0024 18.5526 44.9316 18.8732 44.5356 18.8543 44.1678 18.8402 44.1443 18.529 44.116 17.9066 44.0924 17.4069 44.3706 16.6101 43.8802 16.4121 43.2296 16.1528 42.546 16.6384 42.3574 17.4823 42.2631 17.8972 42.2442 18.3404 42.2301 18.793 42.2159 19.3446 42.2725 19.5898 42.5837 19.5851 45.4408 19.5615 48.298 19.5615 51.1551 19.5851 51.4521 19.5851 51.5276 19.3682 51.5182 18.8025 51.4993 17.7793 51.537 16.7562 51.504 15.7331 51.4851 15.0118 51.6172 14.8656 51.9425 14.8515 52.3102 14.8373 52.3621 15.1627 52.3527 15.7992 52.3338 17.3126 52.3244 18.8307 52.3574 20.3395 52.3762 21.1457 52.2207 21.2777 51.8765 21.273 50.1839 21.24 48.5007 21.2588 46.8128 21.2588Z" fill="#067567" transform="matrix(2.05022 0 0 1 24.3415 36)"/><path d="M64.545 16.115C64.545 17.5436 64.5356 18.9769 64.5497 20.4055 64.5545 20.9995 64.4932 21.2918 64.1584 21.2824 63.8331 21.2777 63.7011 21.1127 63.7058 20.3913 63.7199 17.4917 63.7199 14.5875 63.7058 11.6879 63.7011 10.9995 63.8472 10.8864 64.1348 10.8769 64.4366 10.8675 64.5592 11.0372 64.5497 11.702 64.5309 13.1683 64.545 14.644 64.545 16.115Z" fill="#09776A" transform="matrix(2.05022 0 0 1 24.3415 36)"/><path d="M64.2857 9.94342C64.1301 9.84441 63.8472 10.1886 63.7907 9.65582 63.7199 8.95804 63.6539 8.16596 63.885 7.5389 64.0594 7.06271 64.3564 7.24187 64.6063 7.2513 64.7006 7.25601 64.743 7.40688 64.7289 7.58133 64.7148 7.77463 64.6299 7.81707 64.5497 7.80292 64.2244 7.75106 64.0688 8.06223 64.0688 8.7223 64.0688 9.50024 64.3611 9.16549 64.545 9.24564 64.6629 9.2975 64.8562 9.12306 64.8468 9.5851 64.8421 10.0094 64.6676 9.92456 64.5356 9.94342 64.4649 9.94814 64.3847 9.94342 64.2857 9.94342Z" fill="#147C70" transform="matrix(2.05022 0 0 1 24.3415 36)"/><path d="M43.9793 13.0976C43.7294 12.9844 43.5219 12.7817 43.5314 12.1641 43.5408 11.5276 43.7199 11.1975 44.0264 11.2164 44.3187 11.2353 44.4554 11.6596 44.4507 12.1829 44.4413 12.7204 44.2527 13.0363 43.9793 13.0976Z" fill="#0F796C" transform="matrix(2.05022 0 0 1 24.3415 36)"/><path d="M52.3621 12.1311C52.3527 12.7864 52.1641 13.0976 51.9142 13.107 51.6549 13.1165 51.4616 12.7393 51.4616 12.1876 51.4616 11.5983 51.6219 11.174 51.9378 11.2211 52.2112 11.2636 52.3432 11.6266 52.3621 12.1311Z" fill="#0B796C" transform="matrix(2.05022 0 0 1 24.3415 36)"/><path d="M43.206 12.3857C43.2155 12.744 43.0269 13.0693 42.7723 13.074 42.5177 13.0787 42.3244 12.7676 42.3291 12.1499 42.3338 11.5606 42.4752 11.2258 42.7581 11.2117 43.0457 11.2023 43.1919 11.537 43.206 12.3857Z" fill="#09776A" transform="matrix(2.05022 0 0 1 24.3415 36)"/><path d="M38.6516 17.7086C38.5573 15.9972 38.0292 14.9505 37.2042 14.8939 36.6289 14.8562 36.0537 14.9081 35.4785 14.8609 35.1721 14.8373 35.0542 15.0118 35.0731 15.6766 35.0967 16.7374 35.0684 17.8029 35.0825 18.8685 35.0919 19.3824 35.0259 19.5898 34.7525 19.5851 33.3239 19.5615 31.8953 19.5615 30.4668 19.5851 30.1886 19.5898 30.0802 19.4248 30.0896 18.826 30.1084 17.7652 30.0754 16.695 30.1037 15.6341 30.1226 14.9033 29.9434 14.8751 29.6747 14.8656 29.3824 14.8562 29.2362 14.9929 29.2551 15.6766 29.2786 16.6148 29.2362 17.5625 29.2692 18.5007 29.3022 19.3352 29.1938 19.6228 28.76 19.5992 27.5719 19.5332 26.3791 19.5238 25.1862 19.604 24.7006 19.637 24.5639 19.3918 24.5639 18.3545 24.5592 15.9029 24.0217 14.9033 22.8336 14.8845 22.2159 14.8751 21.603 14.9081 20.9854 14.8751 20.4951 14.8468 19.8774 15.3041 19.5474 14.6865 19.2315 14.1018 19.4531 12.8241 19.4531 11.8576 19.4531 11.1363 19.3682 10.8534 18.991 10.8487 18.5809 10.8392 18.6091 11.3107 18.6091 11.867 18.6139 14.0783 18.5903 16.2895 18.6186 18.5007 18.628 19.3446 18.5243 19.6181 18.1 19.604 16.4545 19.5521 14.8043 19.5521 13.1589 19.604 12.7298 19.6087 12.6355 19.3305 12.6403 18.496 12.645 17.3267 12.9043 15.7803 12.5365 15.0778 12.1782 14.3894 11.438 14.8939 10.8675 14.8892 9.59453 14.8798 9.09477 15.8463 9.09477 18.4818 9.09477 19.4625 8.93447 19.604 8.51485 19.5945 6.19048 19.5521 3.87082 19.5757 1.54644 19.5757 0.77322 19.5757 0.740217 19.4861 0.88166 17.9397 0.990099 16.7515 1.45686 16.2989 2.35738 16.4026 2.97973 16.4734 2.6827 17.4163 2.69684 17.9585 2.7157 18.6657 2.82885 18.8496 3.15417 18.8496 3.47006 18.8496 3.57379 18.6374 3.55964 18.0009 3.54078 17.223 3.54078 16.4451 3.55964 15.6671 3.56907 15.1108 3.50306 14.8468 3.20132 14.8703 2.5884 14.9175 1.97077 14.8515 1.35785 14.9128 0.645922 14.9835 0.132013 15.983 0.0565771 17.4446 0.00942951 18.298 0.0565771 19.1655 0.00942951 20.0189-0.0471476 21.0655 0.150872 21.2871 0.636492 21.2871 6.8694 21.2541 13.1023 21.2636 19.3352 21.2636 25.2711 21.2636 31.207 21.2636 37.1429 21.2636 38.8449 21.2588 38.8449 21.2588 38.6516 17.7086ZM10.8157 19.5757C10.7544 19.5757 10.6884 19.6181 10.6412 19.571 10.4102 19.3494 9.98586 20.1132 9.93871 19.0618 9.89628 18.0905 9.88213 17.058 10.4715 16.6148 10.8157 16.3555 11.174 16.4215 11.5276 16.4074 11.6973 16.4026 11.7869 16.5582 11.7963 16.9024 11.801 17.1051 11.801 17.3126 11.801 17.5153 11.8152 19.5757 11.8152 19.5757 10.8157 19.5757ZM23.7247 19.1278C23.6681 19.967 23.2815 19.5191 23.0457 19.5521 22.5507 19.6228 22.0556 19.571 21.5606 19.5757 20.9854 19.5757 20.4102 19.538 19.835 19.5898 19.5144 19.6181 19.4437 19.3729 19.4389 18.7506 19.4107 16.4074 19.4012 16.4074 20.5422 16.4074 21.1975 16.4074 21.8529 16.4215 22.5083 16.4026 22.7723 16.3932 23.0363 16.4498 23.2626 16.6855 23.7529 17.1947 23.7859 18.2037 23.7247 19.1278ZM37.8029 19.3494C37.7982 19.4248 37.7228 19.5521 37.6803 19.5521 37.1476 19.5662 36.6007 19.6983 36.082 19.5144 35.6954 19.3777 36.0585 18.5101 35.8793 18.1188 36.0113 17.52 35.7143 16.6289 36.1056 16.4734 36.5959 16.2753 37.1523 16.2046 37.5625 17.0391 37.8736 17.6615 37.8359 18.529 37.8029 19.3494Z" fill="#067567" transform="matrix(2.05022 0 0 1 24.3415 36)"/><path d="M2.60255 13.1023C2.82885 12.9844 3.04102 12.7864 3.0363 12.1641 3.03159 11.5842 2.88072 11.2447 2.60255 11.2164 2.28666 11.1881 2.1075 11.5936 2.11221 12.1829 2.11221 12.7251 2.31966 13.0222 2.60255 13.1023Z" fill="#10786C" transform="matrix(2.05022 0 0 1 24.3415 36)"/><path d="M29.7218 13.1117C29.9859 13.0976 30.1367 12.7016 30.1792 12.1452 30.1179 11.6502 30.0141 11.2117 29.7218 11.2211 29.4107 11.2306 29.2456 11.6172 29.2504 12.2254 29.2551 12.8006 29.4625 13.1212 29.7218 13.1117Z" fill="#10786C" transform="matrix(2.05022 0 0 1 24.3415 36)"/><path d="M10.3489 13.0835C10.6035 13.041 10.7779 12.711 10.7779 12.0509 10.7308 11.5842 10.6035 11.2164 10.3206 11.2164 10 11.2117 9.84913 11.6455 9.86327 12.2301 9.88213 12.7581 10.0802 13.1259 10.3489 13.0835Z" fill="#0F7A6E" transform="matrix(2.05022 0 0 1 24.3415 36)"/><path d="M1.38142 13.0787C1.64545 13.0552 1.79161 12.6638 1.83876 12.1075 1.76803 11.6266 1.65959 11.2023 1.36728 11.2117 1.05611 11.2258 0.886374 11.6172 0.900519 12.2159 0.914663 12.7676 1.12211 13.107 1.38142 13.0787Z" fill="#0B796C" transform="matrix(2.05022 0 0 1 24.3415 36)"/><path d="M11.5464 13.074C11.7963 13.0646 11.9896 12.7676 11.9802 12.1546 11.9755 11.5842 11.8435 11.2353 11.5606 11.2164 11.2494 11.1975 11.0891 11.5464 11.0891 12.1735 11.0985 12.7676 11.2966 13.0835 11.5464 13.074Z" fill="#09776A" transform="matrix(2.05022 0 0 1 24.3415 36)"/><path d="M27.5766 29.5285C27.5813 28.8873 27.5766 28.4677 27.1523 28.4724 26.7374 28.4771 26.7185 28.8637 26.7232 29.5238 26.7374 31.735 26.6997 33.9463 26.7421 36.1528 26.761 37.1193 26.6007 37.3126 26.1716 37.2796 25.2805 37.2136 24.3847 37.1947 23.4936 37.2843 23.008 37.3314 22.9137 36.992 22.9184 36.0632 22.9279 33.6775 22.3715 32.579 21.2023 32.5413 20.7072 32.5224 20.2074 32.5695 19.7124 32.5271 19.4248 32.5035 19.3305 32.711 19.3446 33.2956 19.3635 34.3187 19.3305 35.3418 19.3541 36.3649 19.3682 37.0391 19.2834 37.2984 18.9298 37.2796 17.9962 37.2324 17.0627 37.2324 16.1292 37.2796 15.7756 37.2984 15.6907 37.0156 15.7001 36.3555 15.719 35.3324 15.6907 34.3093 15.7096 33.2862 15.719 32.678 15.6011 32.5177 15.3277 32.5271 15.0636 32.5413 14.8656 32.546 14.8845 33.2862 14.9081 34.2669 14.8703 35.2522 14.8939 36.2329 14.9128 36.9967 14.8232 37.3314 14.4036 37.2843 13.7105 37.2042 13.0127 37.2654 12.3197 37.2654 11.0561 37.2654 11.0561 37.2654 11.0561 34.6488 11.0561 32.5413 11.0561 32.6261 10.0283 32.5224 7.57661 32.2772 7.46346 33.8284 7.50118 37.9538 7.50118 37.9962 7.50118 38.0339 7.50118 38.0764 7.45875 38.7412 7.62376 38.9203 7.92079 38.9015 8.51485 38.8685 9.11363 38.8873 9.70769 38.892 10.2074 38.9015 10.33 39.2786 10.1367 40.2357 10.0094 40.8722 9.75955 41.1598 9.43423 41.1834 9.15606 41.2023 8.87789 41.1975 8.59972 41.1881 8.34041 41.1834 8.10467 41.0797 8.10467 41.9472 8.10938 42.7628 8.26968 42.9137 8.60443 42.8571 8.95804 42.8006 9.32108 42.8619 9.67468 42.7676 10.495 42.546 10.9524 41.6832 10.9901 40.0094 11.0184 38.925 11.2541 38.8779 11.6596 38.8826 14.2008 38.9062 16.7421 38.8967 19.2834 38.8967 21.8623 38.8967 24.446 38.8732 27.025 38.9203 27.4729 38.9297 27.5908 38.6846 27.5813 37.7652 27.553 35.0165 27.5672 32.2725 27.5766 29.5285ZM9.26921 37.2607C9.20792 37.2607 9.14663 37.2937 9.09477 37.256 8.84488 37.0769 8.4677 37.6945 8.34041 36.8317 8.19425 35.8652 8.49128 34.6393 8.90618 34.281 9.26921 33.9698 9.64168 34.1113 10.0141 34.0877 10.165 34.0783 10.2169 34.281 10.2216 34.5497 10.2263 34.7949 10.2263 35.0354 10.2263 35.2805 10.231 37.2607 10.231 37.2607 9.26921 37.2607ZM21.5134 37.2654C21.4003 37.223 21.2777 37.2607 21.1598 37.2607 20.1839 37.2607 20.2122 37.2607 20.1792 35.1909 20.165 34.2527 20.3017 34.0264 20.7402 34.0594 21.6502 34.1301 21.9755 34.545 22.0839 35.9547 22.1499 36.893 22.0556 37.4729 21.5134 37.2654Z" fill="#067567" transform="matrix(2.05022 0 0 1 24.3415 36)"/><path d="M3.21546 37.2466C2.65912 37.2937 2.1075 37.2607 1.55116 37.2607 0.792079 37.2607 0.716643 37.0627 0.891089 35.5021 1.01367 34.3753 1.5323 33.8991 2.40453 34.083 2.95144 34.2008 2.68741 35.0684 2.70156 35.5823 2.72041 36.2753 2.82414 36.4969 3.15889 36.4875 3.47478 36.4828 3.59264 36.2565 3.56436 35.6294 3.55021 35.2664 3.55964 34.8939 3.55964 34.5262 3.55964 32.5413 3.55964 32.6167 2.59312 32.5224 0.136728 32.2867-0.0424328 33.6492 0.0141443 37.9349 0.0141443 38.0151 0.018859 38.1 0.0141443 38.1801-0.00942951 38.7034 0.103725 38.9109 0.358322 38.8967 0.834512 38.8732 1.3107 38.892 1.78689 38.8873 2.26308 38.8873 2.73927 38.8637 3.21546 38.8967 3.52664 38.9203 3.56436 38.5714 3.56907 38.0528 3.56907 37.5247 3.53135 37.223 3.21546 37.2466Z" fill="#067567" transform="matrix(2.05022 0 0 1 24.3415 36)"/><path d="M5.752 32.513C5.41254 32.5271 5.30882 32.744 5.31825 33.4371 5.3371 35.2334 5.3371 37.0344 5.31825 38.8307 5.29939 40.4903 5.13909 40.9099 4.34701 41.1645 3.9604 41.2918 4.13956 41.801 4.11127 42.1641 4.07826 42.5648 4.1207 42.8336 4.38472 42.8666 5.3371 42.9939 6.08675 41.7067 6.14333 39.7124 6.17162 38.6516 6.14804 37.5908 6.14804 36.5252 6.15276 36.5252 6.15747 36.5252 6.1669 36.5252 6.1669 35.5021 6.15276 34.479 6.17162 33.4606 6.17633 32.8289 6.11975 32.4988 5.752 32.513Z" fill="#057567" transform="matrix(2.05022 0 0 1 24.3415 36)"/><path d="M29.6134 33.786C29.6134 32.3149 29.5945 30.8439 29.6228 29.3729 29.637 28.6469 29.505 28.4771 29.1749 28.4866 28.8685 28.496 28.76 28.6704 28.7647 29.3258 28.7789 32.2254 28.7836 35.1249 28.7647 38.0292 28.76 38.7553 28.892 38.8967 29.2126 38.9203 29.5898 38.9439 29.6275 38.5761 29.6181 37.9585 29.604 36.5629 29.6134 35.1768 29.6134 33.786Z" fill="#057567" transform="matrix(2.05022 0 0 1 24.3415 36)"/><path d="M15.3182 30.7591C15.587 30.6742 15.7756 30.3913 15.7709 29.8256 15.7661 29.2881 15.6106 28.9156 15.3277 28.9015 15.0118 28.8826 14.8421 29.2881 14.8468 29.8727 14.8515 30.4055 15.0542 30.7025 15.3182 30.7591Z" fill="#087769" transform="matrix(2.05022 0 0 1 24.3415 36)"/><path d="M2.59783 30.7072C2.87129 30.6931 3.0363 30.4102 3.04102 29.769 3.02687 29.2409 2.89486 28.9109 2.60726 28.8873 2.29137 28.8637 2.11693 29.2551 2.12164 29.8397 2.13107 30.3678 2.31966 30.7166 2.59783 30.7072Z" fill="#09776A" transform="matrix(2.05022 0 0 1 24.3415 36)"/><path d="M1.40028 30.7072C1.67374 30.6648 1.80575 30.3017 1.83876 29.7501 1.76803 29.2598 1.65017 28.8685 1.36256 28.892 1.05139 28.9109 0.886374 29.3116 0.909948 29.8963 0.933522 30.4196 1.12683 30.7449 1.40028 30.7072Z" fill="#0A766A" transform="matrix(2.05022 0 0 1 24.3415 36)"/><path d="M62.4894 29.3918C62.4941 28.694 62.3951 28.4913 62.0556 28.4818 61.6973 28.4724 61.6313 28.7647 61.636 29.4201 61.6502 31.6737 61.6266 33.9227 61.6502 36.1763 61.6596 37.0061 61.5747 37.3173 61.1363 37.2796 60.2027 37.2042 59.2692 37.1759 58.3404 37.289 57.7982 37.355 57.6898 36.9873 57.6992 35.9406 57.7181 33.7247 57.1664 32.6073 56.115 32.546 55.5776 32.5177 55.0448 32.5648 54.5073 32.5224 54.2291 32.5035 54.116 32.6686 54.1301 33.2768 54.1537 34.215 54.0971 35.1674 54.1443 36.1009 54.1961 37.1287 53.9887 37.3173 53.5455 37.2749 52.7911 37.2042 52.0368 37.256 51.2824 37.256 50.4762 37.256 50.4762 37.256 50.4479 35.6106 50.4149 33.6728 49.9057 32.6261 48.958 32.5507 48.562 32.5177 48.166 32.5554 47.7652 32.5271 47.5012 32.5083 47.3314 32.5365 47.322 33.2768 47.3126 34.0924 47.5059 34.116 47.7935 34.083 48.0292 34.0547 48.2697 34.0688 48.5101 34.0783 49.3541 34.1207 49.637 34.7808 49.6134 36.5158 49.6087 37.1146 49.5238 37.2796 49.2409 37.2654 48.5667 37.2277 47.8925 37.2513 47.2183 37.256 46.9496 37.256 46.6761 37.1004 46.6808 38.0575 46.6902 38.9722 46.9354 38.892 47.223 38.892 49.6841 38.8873 52.1452 38.8873 54.6063 38.8873 57.0674 38.8873 59.5285 38.8779 61.9896 38.9015 62.3244 38.9062 62.4894 38.8166 62.48 37.9868 62.4658 35.1249 62.4752 32.2584 62.4894 29.3918ZM56.8458 36.8317C56.7185 37.7605 56.2329 37.0297 55.9783 37.2607 54.9741 37.2607 54.9976 37.2607 54.9646 35.2805 54.9505 34.3423 55.0589 33.9463 55.5446 34.0641 55.8369 34.1348 56.148 34.0641 56.4121 34.3706 56.8835 34.9269 56.9684 35.9453 56.8458 36.8317Z" fill="#067567" transform="matrix(2.05022 0 0 1 24.3415 36)"/><path d="M45.7049 37.8736C45.6671 36.3649 45.6766 34.8468 45.7001 33.3333 45.7096 32.6638 45.587 32.5035 45.29 32.5224 45.0165 32.5413 44.8373 32.5884 44.8562 33.3098 44.8845 34.3706 44.8515 35.4361 44.8656 36.5016 44.8751 37.0769 44.7949 37.2843 44.5026 37.2749 43.3899 37.2419 42.2819 37.2324 41.1693 37.2796 40.8298 37.2937 40.7779 37.0156 40.7874 36.4215 40.8062 35.3607 40.7732 34.2904 40.7968 33.2296 40.8157 32.4234 40.5705 32.5601 40.3348 32.5318 40.0802 32.5035 39.9293 32.5931 39.9434 33.2438 39.967 34.347 39.9387 35.455 39.9529 36.5582 39.9576 37.0816 39.8774 37.2749 39.6181 37.2702 37.6521 37.2513 35.6907 37.2607 33.7247 37.256 33.5974 37.256 33.4182 37.3645 33.4088 36.9213 33.3946 36.1056 33.3333 35.2381 33.6728 34.6299 34.1066 33.852 34.6582 33.9463 35.1438 34.1678 35.4644 34.314 35.2805 35.1674 35.2805 35.686 35.2805 36.3838 35.4267 36.4828 35.7143 36.4781 35.9925 36.4734 36.1669 36.4168 36.1433 35.7001 36.115 34.8845 36.1245 34.0641 36.1433 33.2485 36.1528 32.7346 36.082 32.513 35.8133 32.5271 35.1815 32.5695 34.545 32.5271 33.9085 32.579 33.2626 32.6356 32.8571 33.3522 32.6544 34.6205 32.48 35.7049 32.6167 36.8175 32.5507 37.9019 32.4988 38.7647 32.6874 38.9062 33.0552 38.9015 35.0589 38.8732 37.0627 38.8873 39.0665 38.8873 41.0891 38.8873 43.1117 38.8685 45.1344 38.9015 45.5304 38.9156 45.7331 38.8166 45.7049 37.8736Z" fill="#067567" transform="matrix(2.05022 0 0 1 24.3415 36)"/><path d="M64.545 33.6964C64.545 32.2678 64.5309 30.8345 64.5497 29.4059 64.5592 28.7223 64.4602 28.463 64.116 28.4818 63.8048 28.5007 63.7058 28.7129 63.7058 29.3494 63.7199 32.2489 63.7199 35.1532 63.7058 38.0528 63.7011 38.6893 63.8095 38.8967 64.116 38.9156 64.4649 38.9345 64.5592 38.6657 64.5497 37.9868 64.5309 36.5582 64.545 35.1297 64.545 33.6964Z" fill="#09776A" transform="matrix(2.05022 0 0 1 24.3415 36)"/><path d="M45.6058 40.132C45.323 40.1226 45.1438 40.4809 45.1391 41.0042 45.1297 41.5936 45.3088 41.9708 45.6247 41.9472 45.9076 41.9236 46.0443 41.5936 46.0537 41.0608 46.0396 40.429 45.8793 40.1414 45.6058 40.132Z" fill="#09776A" transform="matrix(2.05022 0 0 1 24.3415 36)"/><path d="M40.3913 30.7355C40.6554 30.7166 40.8298 30.3913 40.8015 29.4719 40.7826 29.2126 40.6506 28.8732 40.3583 28.892 40.0613 28.9109 39.9387 29.2692 39.9387 29.8444 39.9387 30.4526 40.1226 30.7591 40.3913 30.7355Z" fill="#087769" transform="matrix(2.05022 0 0 1 24.3415 36)"/><path d="M44.3706 40.1367C44.0877 40.1273 43.9227 40.5045 43.918 41.0278 43.9132 41.5512 44.083 41.9095 44.347 41.9566 44.6346 41.9613 44.8185 41.6502 44.8373 41.1174 44.8562 40.5045 44.6723 40.1462 44.3706 40.1367Z" fill="#0A766A" transform="matrix(2.05022 0 0 1 24.3415 36)"/><path d="M35.1297 30.7025C35.4078 30.7214 35.5823 30.4243 35.5823 29.8208 35.5823 29.2456 35.4503 28.8967 35.1532 28.8873 34.8703 28.892 34.7053 29.1749 34.6959 29.769 34.6865 30.3678 34.8515 30.6884 35.1297 30.7025Z" fill="#057567" transform="matrix(2.05022 0 0 1 24.3415 36)"/><path d="M33.9321 30.7025C34.2103 30.6836 34.3611 30.3678 34.3659 29.7265 34.3376 29.2079 34.1961 28.8873 33.9085 28.8873 33.6068 28.8826 33.4748 29.2739 33.4748 29.8114 33.4795 30.3678 33.6492 30.7214 33.9321 30.7025Z" fill="#067569" transform="matrix(2.05022 0 0 1 24.3415 36)"/><path d="M62.579 17.0816C62.4517 15.818 61.9519 14.9694 61.306 14.9081 60.6931 14.8515 60.0754 14.9081 59.4625 14.8656 59.1843 14.8468 59.0759 15.0306 59.0853 15.6247 59.1042 16.6431 59.0712 17.6709 59.0948 18.6893 59.1136 19.3824 59.0005 19.5992 58.661 19.5851 57.4917 19.5427 56.3225 19.5285 55.1532 19.5851 54.5733 19.6134 54.3753 19.0806 54.38 17.9727 54.3894 16.0113 54.3847 14.05 54.38 12.0839 54.38 11.4663 54.479 10.8109 53.9415 10.8204 53.3758 10.8345 53.5455 11.5747 53.5408 12.1405 53.5266 14.0217 53.5361 15.9029 53.5361 17.7841 53.5408 20.4008 53.9274 21.2164 55.2051 21.2447 56.3366 21.2683 57.4635 21.2494 58.595 21.2494 59.802 21.2494 61.0137 21.2494 62.2206 21.2494 62.4422 21.2494 62.6638 21.3201 62.6638 20.6129 62.6733 19.4389 62.6968 18.2414 62.579 17.0816ZM61.5182 19.571C61.3013 19.571 61.0844 19.571 60.8157 19.571 60.5611 19.4437 60.099 19.9151 59.9859 19.3541 59.8397 18.6186 59.934 17.6756 59.9434 16.8175 59.9434 16.6902 60.0189 16.4545 60.0613 16.4498 60.5516 16.3979 61.0608 16.2329 61.4899 16.9071 61.8576 17.4823 61.7822 18.364 61.801 19.1608 61.8152 19.5851 61.6596 19.571 61.5182 19.571Z" fill="#067567" transform="matrix(2.05022 0 0 1 24.3415 36)"/></g></svg>